<svg width="50" height="52" viewBox="0 0 50 52" fill="none" xmlns="http://www.w3.org/2000/svg">
<path d="M49.9919 32.6281C49.9641 33.7679 49.965 34.9096 49.8993 36.0475C49.8188 37.4363 49.6578 38.8166 49.3701 40.1808C49.074 41.5867 48.3772 42.7379 47.3603 43.7094C46.5451 44.488 45.6605 45.1743 44.7639 45.8464C43.0964 47.0955 41.3495 48.2182 39.5331 49.2211C37.9008 50.1223 36.2297 50.9427 34.4494 51.4988C33.5759 51.7716 32.6932 51.9902 31.7706 51.9997C30.3965 52.0149 29.4166 51.36 28.7624 50.1508C28.3248 49.3409 28.1332 48.4511 28.0435 47.5404C27.9186 46.2751 27.9528 45.008 28.0564 43.7418C28.2026 41.9584 28.3609 40.1751 28.4719 38.3898C28.5422 37.2519 28.5348 36.1093 28.3581 34.9771C28.2517 34.2936 28.0379 33.6481 27.6761 33.0597C26.9831 31.9332 25.6738 31.2735 24.5051 31.533C23.5344 31.7488 22.8367 32.3429 22.3537 33.2185C21.9383 33.9723 21.7643 34.7984 21.6727 35.6482C21.5348 36.9259 21.6005 38.2025 21.7005 39.4773C21.8356 41.1998 21.9938 42.9214 22.1363 44.6429C22.2427 45.9282 22.1317 47.1982 21.8245 48.4473C21.619 49.2819 21.2424 50.0225 20.5966 50.5957C19.8554 51.2545 18.9828 51.4997 18.0205 51.4493C16.9277 51.3913 15.871 51.1347 14.8467 50.7573C12.4825 49.8846 10.2497 48.7268 8.09653 47.4016C6.69931 46.5423 5.34466 45.6173 4.05107 44.5992C3.42186 44.1039 2.82966 43.5659 2.27817 42.9803C1.56753 42.2246 1.12894 41.3205 0.870774 40.3138C0.478442 38.7843 0.310961 37.2196 0.165687 35.6501C0.0296661 34.1824 -0.0119729 32.7099 0.00283209 31.2374C0.0241143 29.0614 0.158284 26.8931 0.594106 24.7561C0.773617 23.8777 0.997542 23.0146 1.38802 22.2056C2.11995 20.6913 3.39688 19.984 5.03098 20.1836C6.11637 20.3158 7.1083 20.7341 8.066 21.2483C9.05608 21.7807 9.97307 22.4338 10.8947 23.0783C12.3641 24.104 13.8205 25.1516 15.3047 26.1545C16.1699 26.7391 17.0943 27.2258 18.0945 27.5338C18.8339 27.7619 19.588 27.8551 20.3504 27.6773C21.7412 27.3532 22.6221 26.2191 22.6341 24.7514C22.6434 23.6734 22.1927 22.795 21.4849 22.0392C20.7483 21.254 19.8683 20.6694 18.944 20.1466C17.5079 19.3348 16.0172 18.6389 14.5284 17.9374C13.4106 17.4107 12.3076 16.8527 11.2629 16.1816C10.5051 15.6949 9.7732 15.1692 9.21616 14.4372C8.52033 13.5237 8.16501 12.5027 8.37968 11.3306C8.52403 10.5444 8.92099 9.8828 9.41233 9.28201C10.2932 8.20497 11.3055 7.26766 12.3946 6.41686C13.9343 5.21339 15.5712 4.16486 17.2516 3.18288C18.8255 2.26363 20.4541 1.46512 22.1344 0.774973C22.8839 0.466975 23.6492 0.205556 24.4496 0.0724701C25.5248 -0.106245 26.5722 0.0582109 27.5799 0.427049C28.5681 0.788282 29.5342 1.21416 30.5011 1.63433C32.0852 2.32257 33.5963 3.16387 35.0777 4.05554C36.9533 5.18487 38.741 6.44538 40.3677 7.93404C41.0737 8.58046 41.7048 9.29532 42.1711 10.1471C42.8309 11.3515 42.7513 12.5369 42.0471 13.691C41.5503 14.5056 40.8655 15.134 40.1197 15.6987C39.0436 16.5133 37.8546 17.1217 36.6554 17.713C35.1119 18.4735 33.5574 19.2121 32.0214 19.9897C30.9341 20.5401 29.9135 21.2084 29.0114 22.0507C28.4848 22.5421 28.0463 23.0973 27.8408 23.815C27.4837 25.0622 27.8788 26.3969 28.8568 27.2191C29.8506 28.0547 30.9554 28.1878 32.1408 27.7391C33.2798 27.3076 34.3615 26.7467 35.3701 26.0565C36.783 25.0907 38.1645 24.0774 39.5682 23.0982C40.4991 22.4499 41.4318 21.8025 42.4515 21.3035C43.2158 20.9299 44.006 20.6437 44.8555 20.5601C46.4627 20.4004 47.7489 21.1219 48.4799 22.5982C48.9666 23.5821 49.2599 24.6316 49.4543 25.7124C49.8688 27.9977 50.0409 30.3029 49.9919 32.6281ZM5.86098 34.4276C5.8508 35.1805 5.87764 35.9296 5.99145 36.6758C6.19039 37.9772 6.72152 39.098 7.66441 40.003C8.43705 40.7445 9.30036 41.3529 10.2303 41.8633C11.0853 42.3329 11.9708 42.7217 12.9267 42.9195C13.2792 42.9927 13.6364 43.0231 13.9954 42.9651C14.855 42.8254 15.3676 42.2769 15.6471 41.465C15.8941 40.7502 15.9219 40.002 15.9284 39.2549C15.9376 38.1455 15.8016 37.0513 15.5731 35.9695C15.3602 34.9638 14.9772 34.0398 14.3026 33.265C13.1746 31.9694 11.8709 30.898 10.3756 30.0795C9.82131 29.7753 9.2467 29.5149 8.61563 29.4255C7.71808 29.2981 6.99634 29.667 6.54849 30.4721C6.29865 30.9218 6.15338 31.4085 6.04882 31.9104C5.87579 32.7403 5.85173 33.5835 5.86098 34.4276ZM44.2549 34.8839C44.2688 34.883 44.2827 34.882 44.2966 34.8811C44.242 34.189 44.2105 33.4932 44.1272 32.8049C44.0393 32.0825 43.8682 31.3771 43.5138 30.7336C43.0548 29.9008 42.3081 29.5177 41.3874 29.6442C40.8526 29.7174 40.3575 29.9179 39.8773 30.1584C38.58 30.8087 37.4446 31.6861 36.4286 32.7346C35.6949 33.4922 35.1443 34.3601 34.8445 35.3868C34.4059 36.8878 34.2264 38.4278 34.2449 39.9906C34.2532 40.6627 34.3523 41.3272 34.603 41.9556C34.9158 42.7398 35.4599 43.2227 36.3074 43.2864C36.7044 43.3159 37.0949 43.256 37.4733 43.1391C39.261 42.5849 40.8701 41.696 42.2683 40.4165C43.1649 39.5961 43.771 38.6008 44.0162 37.3831C44.1846 36.558 44.242 35.7243 44.2549 34.8839ZM25.0149 15.8241C25.6747 15.8232 26.2114 15.7462 26.7388 15.6083C28.0786 15.2585 29.3445 14.7195 30.5344 13.999C31.1497 13.6263 31.7318 13.208 32.1824 12.6244C32.7505 11.8895 32.8162 11.0787 32.3675 10.2659C32.0269 9.65085 31.5375 9.17174 31.01 8.73066C29.9977 7.88461 28.8642 7.25245 27.6678 6.73057C26.2549 6.11362 24.8262 6.03662 23.3762 6.58798C22.0826 7.08039 20.8982 7.77624 19.8054 8.6356C19.2623 9.06242 18.7607 9.53773 18.3804 10.13C17.8003 11.033 17.8502 11.9399 18.5183 12.7755C18.8533 13.1957 19.2641 13.5275 19.7009 13.824C20.6141 14.4438 21.5978 14.9239 22.6249 15.3099C23.4326 15.6141 24.2599 15.8279 25.0149 15.8241Z" fill="#D9D9D9"/>
</svg>
